<?xml version="1.0" standalone="no"?>
<!DOCTYPE svg PUBLIC "-//W3C//DTD SVG 20010904//EN"
 "http://www.w3.org/TR/2001/REC-SVG-20010904/DTD/svg10.dtd">
<svg version="1.0" xmlns="http://www.w3.org/2000/svg"
 width="903.000000pt" height="722.000000pt" viewBox="0 0 903.000000 722.000000"
 preserveAspectRatio="xMidYMid meet">

<g transform="translate(0.000000,722.000000) scale(0.100000,-0.100000)"
fill="#000000" stroke="none">
<path d="M5230 6976 c0 -31 9 -50 41 -93 52 -67 54 -68 57 -32 3 35 -15 70
-62 124 l-35 40 -1 -39z"/>
<path d="M3318 6758 c5 -23 20 -37 74 -70 23 -15 28 -15 28 -3 0 16 -37 53
-79 78 -29 17 -29 17 -23 -5z"/>
<path d="M3938 6704 c-16 -8 -28 -17 -28 -20 0 -2 9 0 19 6 28 15 31 13 32
-17 l1 -28 10 28 c13 37 0 49 -34 31z"/>
<path d="M5620 6616 c0 -14 5 -26 10 -26 6 0 10 9 10 19 0 11 -4 23 -10 26 -6
4 -10 -5 -10 -19z"/>
<path d="M6086 6633 c-4 -4 -25 -6 -46 -4 -26 2 -40 -2 -40 -10 0 -8 11 -10
35 -6 44 7 49 -1 25 -41 -13 -22 -16 -33 -8 -38 7 -4 8 -3 4 4 -4 7 -3 12 2
12 8 0 46 52 60 83 5 9 -22 9 -32 0z"/>
<path d="M3656 6598 c3 -5 10 -6 15 -3 13 9 11 12 -6 12 -8 0 -12 -4 -9 -9z"/>
<path d="M3741 6591 c-6 -10 -7 -21 -4 -25 4 -4 9 -19 11 -34 2 -14 8 -32 14
-39 5 -7 7 -16 4 -21 -3 -5 -1 -23 4 -41 7 -27 3 -42 -28 -105 -34 -67 -36
-76 -25 -107 6 -19 21 -79 33 -133 l23 -99 110 7 c61 4 113 8 114 10 2 2 -7
47 -21 100 -22 83 -32 105 -71 151 l-46 53 16 63 c11 42 14 79 10 113 -12 83
-19 87 -52 21 l-30 -58 -6 54 c-6 54 -26 109 -39 109 -4 0 -12 -8 -17 -19z"/>
<path d="M3941 6594 c0 -11 3 -14 6 -6 3 7 2 16 -1 19 -3 4 -6 -2 -5 -13z"/>
<path d="M5725 6572 c-5 -4 -11 -54 -13 -112 -2 -57 -8 -113 -13 -123 -7 -12
-7 -23 1 -32 8 -10 -8 -30 -73 -91 -95 -89 -96 -91 -103 -249 -5 -107 -7 -132
-15 -139 -2 -3 -3 -24 -1 -48 l4 -44 126 -36 c189 -55 182 -54 183 -27 1 13 3
42 5 64 17 221 18 205 -24 302 l-39 90 54 84 c30 47 52 92 49 102 -2 9 0 14 6
11 6 -4 9 9 7 33 -2 21 0 43 3 48 3 6 6 26 6 46 l0 37 -55 -62 c-31 -33 -59
-65 -63 -69 -9 -10 -5 101 4 123 3 8 4 31 2 50 -3 19 -5 38 -5 43 -1 9 -33 9
-46 -1z"/>
<path d="M6006 6489 c-15 -23 -22 -39 -14 -37 15 5 53 66 46 74 -3 2 -17 -14
-32 -37z"/>
<path d="M4823 6443 c-37 -12 -43 -19 -43 -43 0 -24 -7 -30 -57 -50 -61 -24
-86 -40 -64 -40 18 0 284 100 296 111 13 12 -5 12 -45 -2 -34 -13 -54 0 -43
28 3 7 4 13 2 12 -2 0 -23 -7 -46 -16z"/>
<path d="M3167 6308 c-19 -14 -26 -26 -22 -38 4 -13 -5 -26 -30 -46 -19 -15
-33 -29 -31 -31 3 -3 43 26 90 63 80 64 108 96 53 59 -22 -14 -26 -14 -29 -1
-2 12 -8 11 -31 -6z"/>
<path d="M2585 6251 c-3 -5 -1 -12 5 -16 5 -3 10 1 10 9 0 18 -6 21 -15 7z"/>
<path d="M4436 6241 c-3 -5 1 -11 9 -15 9 -3 15 0 15 9 0 16 -16 20 -24 6z"/>
<path d="M2142 6169 c2 -7 22 -19 44 -26 39 -14 39 -13 19 6 -25 24 -69 39
-63 20z"/>
<path d="M2449 6133 c-9 -11 -10 -14 -1 -9 7 4 12 1 12 -8 0 -9 12 -38 26 -64
24 -46 25 -50 12 -101 l-14 -54 41 -81 c22 -44 41 -83 42 -85 3 -5 127 29 143
39 22 14 -46 133 -92 161 -36 22 -38 26 -38 75 0 28 -8 67 -18 88 -19 39 -32
38 -32 -1 0 -34 -16 -28 -43 17 -22 37 -25 39 -38 23z"/>
<path d="M4640 6123 c0 -5 25 -23 55 -41 45 -27 55 -38 55 -61 0 -21 8 -32 40
-50 l40 -22 0 25 c0 31 0 31 50 6 22 -11 40 -17 40 -12 0 8 -261 162 -274 162
-3 0 -6 -3 -6 -7z"/>
<path d="M4084 6066 c20 -23 36 -48 36 -54 0 -6 -15 -13 -32 -15 -22 -2 -15
-4 20 -5 l54 -2 -52 60 c-60 69 -79 81 -26 16z"/>
<path d="M3115 6061 c3 -5 23 -12 45 -16 22 -4 40 -11 40 -15 0 -16 31 -40 51
-40 11 0 19 7 19 16 0 13 7 15 32 10 19 -4 28 -3 23 3 -6 5 -50 16 -100 25
-49 10 -96 19 -103 22 -7 2 -11 0 -7 -5z"/>
<path d="M3811 5954 c0 -11 3 -14 6 -6 3 7 2 16 -1 19 -3 4 -6 -2 -5 -13z"/>
<path d="M2158 5870 c-7 -11 -21 -20 -30 -20 -10 0 -18 -1 -18 -3 0 -1 -4 -17
-10 -35 -7 -27 -6 -32 3 -23 17 14 80 101 73 101 -3 0 -11 -9 -18 -20z"/>
<path d="M2810 5800 c0 -5 5 -10 11 -10 5 0 7 5 4 10 -3 6 -8 10 -11 10 -2 0
-4 -4 -4 -10z"/>
<path d="M5923 5791 c0 -11 5 -18 9 -15 4 3 5 11 1 19 -7 21 -12 19 -10 -4z"/>
<path d="M3606 5746 c-26 -44 -36 -103 -16 -91 17 10 42 65 46 101 2 19 2 34
0 34 -2 0 -16 -20 -30 -44z"/>
<path d="M5937 5763 c-7 -11 10 -40 18 -31 4 4 3 14 -3 24 -5 9 -12 12 -15 7z"/>
<path d="M5540 5675 c1 -26 2 -28 11 -12 8 14 8 22 0 30 -8 8 -11 3 -11 -18z"/>
<path d="M5967 5688 c8 -14 9 -17 19 -60 5 -22 3 -28 -10 -28 -9 0 -16 -5 -16
-12 0 -6 3 -8 6 -5 4 3 15 2 26 -4 22 -12 42 -3 31 14 -4 7 -8 14 -8 17 0 16
-39 90 -47 90 -5 0 -6 -6 -1 -12z"/>
<path d="M2155 5660 c44 -11 75 -11 75 0 0 6 -23 9 -52 9 -45 -1 -49 -2 -23
-9z"/>
<path d="M5925 5600 c3 -5 10 -10 16 -10 5 0 9 5 9 10 0 6 -7 10 -16 10 -8 0
-12 -4 -9 -10z"/>
<path d="M1720 5581 c0 -5 16 -22 35 -38 26 -20 37 -39 42 -68 6 -38 17 -51
89 -107 21 -17 23 -16 68 19 38 30 44 38 32 45 -9 5 -28 20 -43 34 -14 13 -37
24 -49 24 -26 0 -64 32 -64 53 0 12 -34 47 -45 47 -3 0 -5 -7 -5 -15 0 -8 -4
-15 -9 -15 -5 0 -14 7 -21 15 -14 17 -30 20 -30 6z"/>
<path d="M2496 5528 c-3 -13 -6 -32 -6 -42 0 -29 16 -7 23 32 7 36 -7 44 -17
10z"/>
<path d="M1530 5520 l-25 -8 28 -1 c15 -1 27 4 27 9 0 6 -1 10 -2 9 -2 -1 -14
-5 -28 -9z"/>
<path d="M5158 5467 c-46 -42 -57 -59 -60 -89 l-4 -36 50 45 c65 58 78 77 74
108 -3 23 -6 22 -60 -28z"/>
<path d="M1587 5304 c-4 -4 -7 -19 -6 -33 l0 -26 10 24 c10 26 8 47 -4 35z"/>
<path d="M1911 5214 c0 -11 3 -14 6 -6 3 7 2 16 -1 19 -3 4 -6 -2 -5 -13z"/>
<path d="M7329 5182 c-1 -29 -1 -63 -2 -77 -1 -14 3 -26 9 -27 13 -4 17 133 4
146 -7 7 -10 -6 -11 -42z"/>
<path d="M7521 5158 c1 -72 2 -74 28 -75 14 0 18 1 9 4 -15 4 -18 16 -18 68 0
35 -5 67 -10 70 -7 4 -10 -19 -9 -67z"/>
<path d="M1665 5204 l-30 -13 30 6 c32 6 41 11 34 17 -2 2 -17 -2 -34 -10z"/>
<path d="M1287 5170 c-16 -5 -35 -14 -43 -21 -8 -6 -27 -9 -42 -6 -36 7 -62
-7 -35 -18 15 -7 14 -9 -12 -15 -26 -7 -24 -8 15 -7 25 0 54 -4 65 -10 13 -6
36 -6 63 -1 41 9 42 10 42 49 0 41 -4 44 -53 29z"/>
<path d="M7390 4817 c-40 -14 -63 -59 -40 -80 9 -8 11 -8 6 0 -3 6 4 21 16 32
24 23 42 26 127 22 14 -1 41 -18 65 -43 37 -39 43 -36 8 4 -7 9 -11 21 -8 27
18 29 -117 59 -174 38z"/>
<path d="M6989 4778 c-6 -25 -9 -71 -6 -108 6 -66 35 -160 49 -160 4 0 8 -6 8
-13 0 -7 15 -27 33 -43 37 -36 97 -78 97 -69 0 3 14 -1 30 -10 17 -9 30 -20
30 -25 0 -6 6 -10 14 -10 8 0 17 -6 19 -12 4 -10 6 -10 6 0 1 7 6 10 11 7 8
-5 7 -11 0 -20 -8 -10 -8 -20 -2 -32 9 -16 12 -14 29 15 16 28 22 31 48 27 17
-4 37 -7 45 -9 8 -1 35 -8 60 -16 25 -7 49 -13 53 -12 5 2 6 -2 2 -8 -3 -5 1
-10 9 -10 9 0 13 -7 11 -20 -4 -21 10 -36 20 -21 3 6 13 8 23 5 13 -5 14 -4 3
4 -9 6 -11 19 -7 36 5 21 1 28 -23 41 -17 8 -63 22 -102 30 -58 12 -74 13 -81
3 -6 -10 -8 -9 -8 3 0 11 -19 21 -61 33 -133 37 -218 97 -262 185 -18 39 -22
62 -22 149 0 56 -3 102 -7 102 -4 0 -12 -19 -19 -42z m311 -472 c0 -3 -4 -8
-10 -11 -5 -3 -10 -1 -10 4 0 6 5 11 10 11 6 0 10 -2 10 -4z"/>
<path d="M1015 4764 c-16 -8 -37 -13 -47 -11 -10 3 -20 1 -23 -4 -9 -13 59
-37 89 -32 21 4 26 11 26 34 0 33 -4 35 -45 13z"/>
<path d="M7740 4750 c-14 -4 -20 -9 -15 -9 6 -1 1 -9 -10 -17 -11 -9 -13 -14
-5 -11 8 3 32 11 53 18 38 13 50 30 20 28 -10 -1 -29 -5 -43 -9z"/>
<path d="M7614 4705 c-19 -14 -19 -14 1 -15 11 0 31 3 43 7 18 4 20 8 10 14
-19 12 -32 11 -54 -6z"/>
<path d="M7416 4701 c-6 -10 52 -31 87 -31 31 0 18 18 -19 24 -19 4 -41 9 -49
12 -7 3 -16 1 -19 -5z"/>
<path d="M8266 4650 c-15 -5 -16 -9 -7 -14 7 -5 18 -3 24 3 14 14 6 20 -17 11z"/>
<path d="M7202 4344 c-7 -8 -8 -14 -3 -14 10 0 25 19 20 25 -2 1 -10 -3 -17
-11z"/>
<path d="M7068 4283 c6 -2 18 -2 25 0 6 3 1 5 -13 5 -14 0 -19 -2 -12 -5z"/>
<path d="M6925 4250 c-4 -20 -2 -37 7 -47 11 -14 11 -16 -2 -8 -12 7 -13 6 -3
-7 7 -8 14 -27 15 -41 1 -14 6 -23 10 -21 4 3 8 1 8 -5 0 -5 5 -22 12 -38 6
-15 11 -31 10 -35 -1 -3 18 -24 42 -46 33 -31 41 -43 32 -53 -6 -7 -7 -10 0
-6 6 3 17 -3 24 -14 8 -10 20 -19 27 -19 6 0 14 -3 16 -7 3 -5 -5 -8 -18 -8
-13 0 -21 5 -18 10 3 6 -5 -1 -16 -15 -12 -15 -21 -19 -21 -11 0 11 -3 11 -17
0 -15 -13 -15 -12 -4 9 12 23 3 30 -16 11 -8 -8 -14 -6 -22 9 -7 13 -18 19
-31 17 -17 -3 -19 -1 -10 16 7 11 7 19 1 19 -5 0 -11 -6 -14 -12 -3 -9 -10 -7
-22 7 -9 11 -13 13 -10 5 4 -8 -8 2 -28 23 -31 34 -38 37 -57 27 -25 -13 -27
-9 46 -86 146 -157 411 -256 633 -237 69 6 72 7 67 29 -3 12 -1 26 5 30 6 3 9
19 5 35 -3 15 -1 31 4 34 6 4 7 12 3 18 -18 28 -5 39 132 106 33 16 80 47 104
67 46 40 103 121 115 164 6 23 6 23 -5 5 -7 -11 -19 -25 -26 -30 -7 -6 -17
-24 -21 -40 -15 -56 -225 -175 -308 -175 -13 0 -26 -4 -29 -10 -3 -5 -1 -10 4
-10 7 0 11 -27 11 -69 l0 -70 -104 -3 c-57 -2 -102 1 -99 5 3 4 -1 14 -7 22
-7 8 -10 38 -9 71 l3 58 -57 13 c-143 32 -239 112 -308 257 -22 47 -42 86 -44
86 -2 0 -6 -14 -10 -30z m176 -373 c-6 -8 -7 -18 -3 -23 4 -4 -1 -2 -11 6 -18
14 -18 14 0 21 26 11 27 10 14 -4z m109 -71 c0 -3 -4 -8 -10 -11 -5 -3 -10 -1
-10 4 0 6 5 11 10 11 6 0 10 -2 10 -4z"/>
<path d="M7028 4273 c7 -3 16 -2 19 1 4 3 -2 6 -13 5 -11 0 -14 -3 -6 -6z"/>
<path d="M6968 4263 c7 -3 16 -2 19 1 4 3 -2 6 -13 5 -11 0 -14 -3 -6 -6z"/>
<path d="M7320 4266 c0 -2 8 -10 18 -17 15 -13 16 -12 3 4 -13 16 -21 21 -21
13z"/>
<path d="M7370 4220 c-8 -5 -18 -6 -24 -3 -5 3 -6 1 -2 -5 9 -14 103 -35 140
-30 16 1 31 9 34 16 3 9 -14 12 -61 12 -36 0 -67 4 -69 10 -2 6 -9 6 -18 0z"/>
<path d="M663 4210 c-33 -14 -81 -92 -99 -162 -20 -75 -13 -160 15 -217 22
-42 84 -101 106 -101 31 0 33 -32 8 -104 -42 -119 -55 -206 -39 -264 26 -100
71 -136 172 -135 74 1 166 41 249 109 85 69 88 64 50 -71 -51 -178 -57 -189
-130 -238 -143 -97 -242 -191 -265 -252 -18 -47 -12 -75 24 -111 31 -31 39
-34 95 -34 151 0 246 119 354 440 59 175 97 330 97 395 0 67 -20 88 -81 83
-43 -3 -44 -4 -49 -41 -9 -70 -149 -188 -251 -212 -19 -5 -34 0 -55 18 -27 24
-29 30 -28 99 0 75 11 130 47 231 20 59 46 87 80 87 26 0 174 59 230 92 26 15
51 28 56 28 4 0 16 -18 26 -40 29 -64 91 -90 153 -64 119 49 83 361 -52 445
-26 17 -46 19 -121 17 -77 -3 -99 -7 -150 -33 -79 -40 -209 -168 -273 -270
-79 -123 -75 -119 -105 -111 -70 17 -127 109 -127 203 0 83 58 193 103 193 10
0 17 5 15 13 -6 15 -27 18 -55 7z m709 -91 c58 -69 86 -236 53 -315 -13 -32
-18 -35 -51 -32 -48 4 -75 40 -82 107 l-5 51 -30 -26 c-73 -61 -264 -131 -290
-105 -34 34 172 315 258 352 11 5 42 7 70 5 42 -3 54 -9 77 -37z m-339 -1135
c17 -17 -96 -245 -140 -285 -19 -16 -44 -29 -56 -29 -36 0 -67 35 -67 76 0 29
10 46 58 96 60 65 166 148 186 148 7 0 15 -3 19 -6z"/>
<path d="M6740 4140 c-9 -6 -10 -10 -3 -10 6 0 15 5 18 10 8 12 4 12 -15 0z"/>
<path d="M6740 4100 c0 -8 5 -22 10 -30 9 -13 10 -13 10 0 0 8 -5 22 -10 30
-9 13 -10 13 -10 0z"/>
<path d="M6777 4043 c-4 -3 -2 -12 3 -19 14 -16 50 -6 49 15 0 10 -2 11 -6 4
-2 -7 -14 -13 -24 -13 -11 0 -17 5 -14 10 7 11 2 13 -8 3z"/>
<path d="M6535 3983 c41 -71 71 -110 149 -192 69 -72 186 -169 186 -155 0 4 8
0 18 -8 26 -24 130 -73 202 -96 131 -42 320 -70 320 -48 0 7 3 7 8 1 9 -12 52
-19 52 -8 0 4 27 6 60 5 35 -2 60 0 60 6 0 6 8 8 18 6 9 -3 35 0 57 5 39 10
38 10 -12 5 -37 -4 -53 -2 -53 6 0 6 -6 10 -12 7 -7 -2 -28 4 -46 15 -27 15
-36 16 -52 5 -11 -6 -18 -17 -16 -23 5 -12 -34 -28 -43 -19 -2 3 1 5 9 5 10 0
10 3 0 15 -11 13 -10 14 3 9 10 -4 15 0 13 10 -3 24 -14 30 -29 18 -11 -9 -13
-5 -11 21 2 17 1 24 -2 15 -5 -16 -7 -16 -21 -3 -8 8 -19 13 -24 10 -5 -4 -9
-2 -9 2 0 5 -21 15 -47 22 -79 22 -228 73 -233 80 -3 3 -27 17 -54 31 -82 41
-96 51 -96 61 0 6 -4 8 -8 5 -5 -3 -26 9 -48 27 -21 17 -43 35 -49 39 -5 4
-23 18 -40 31 -17 14 -42 23 -58 23 -16 -1 -31 3 -34 8 -3 5 -1 6 5 2 7 -4 12
-2 12 4 0 6 5 8 10 5 6 -3 10 -1 10 5 0 7 -8 9 -20 6 -11 -3 -29 -8 -40 -12
-10 -3 -31 2 -44 12 -14 9 -33 14 -41 10 -10 -3 -24 8 -41 34 -37 55 -42 50
-9 -7z m662 -419 c-3 -3 -12 -4 -19 -1 -8 3 -5 6 6 6 11 1 17 -2 13 -5z m313
-54 c0 -11 -4 -20 -9 -20 -6 0 -9 9 -8 20 1 11 5 20 9 20 4 0 8 -9 8 -20z"/>
<path d="M7023 3983 c4 -3 1 -13 -6 -22 -10 -14 -10 -14 4 -4 9 7 20 9 25 5 4
-4 2 1 -5 11 -7 9 -16 17 -19 17 -3 0 -2 -3 1 -7z"/>
<path d="M3768 3883 c-31 -34 -48 -65 -48 -90 0 -27 -25 -68 -39 -65 -8 1 -28
-2 -47 -8 -28 -10 -35 -19 -44 -53 -23 -89 -113 -235 -166 -267 -47 -30 -85
-23 -105 18 -14 28 -15 40 -4 90 25 112 90 236 141 269 30 20 54 -6 54 -57 0
-46 17 -62 26 -25 9 37 -11 97 -42 129 -21 21 -36 26 -74 26 -39 0 -53 -6 -89
-36 -85 -73 -131 -183 -131 -312 0 -66 4 -85 23 -113 66 -98 194 -67 290 71
21 30 43 55 48 55 6 0 19 -25 29 -55 21 -64 69 -110 113 -110 37 0 98 32 133
70 16 18 52 42 80 55 28 12 55 28 58 34 4 6 15 11 24 11 14 0 17 -11 17 -64 0
-68 20 -106 55 -106 14 0 18 14 23 76 10 108 79 246 175 346 59 62 69 28 26
-87 -46 -123 -72 -234 -64 -272 17 -72 78 -83 138 -25 52 50 168 249 160 274
-3 7 -33 -38 -68 -100 -36 -62 -76 -124 -91 -138 -61 -59 -65 15 -9 187 41
127 51 214 28 237 -18 18 -59 15 -91 -7 -27 -18 -117 -128 -117 -143 0 -5 -4
-8 -10 -8 -5 0 -10 24 -10 53 0 62 -20 97 -56 97 -20 0 -24 -5 -24 -27 0 -37
-36 -176 -54 -210 -22 -42 -76 -93 -98 -93 -22 0 -22 2 8 80 18 48 31 192 20
234 -3 13 -18 38 -32 55 -23 27 -32 31 -78 31 -44 0 -56 -4 -78 -27z m146 -51
c24 -47 27 -85 12 -163 -16 -85 -44 -156 -64 -164 -21 -8 -50 12 -69 48 -14
25 -18 56 -18 142 0 115 14 162 52 184 24 13 69 -11 87 -47z m-181 -284 c10
-18 33 -43 52 -56 39 -25 44 -46 16 -62 -29 -15 -56 -12 -81 8 -27 22 -43 142
-19 142 8 0 22 -15 32 -32z"/>
<path d="M2213 3855 c-39 -17 -81 -57 -118 -112 -15 -24 -32 -43 -36 -43 -5 0
-9 21 -9 48 0 60 -22 94 -58 90 -23 -3 -27 -8 -29 -38 -8 -106 -45 -202 -126
-323 -26 -39 -44 -57 -55 -55 -10 2 -16 12 -15 23 2 11 5 84 8 161 5 132 4
145 -16 178 -56 96 -195 55 -286 -84 -84 -130 -113 -243 -78 -309 17 -33 33
-41 82 -41 40 0 112 48 134 88 16 28 49 30 49 2 0 -11 7 -36 14 -55 13 -30 20
-35 47 -35 42 0 89 36 130 100 18 27 36 50 39 50 4 0 10 -25 12 -55 5 -59 28
-95 60 -95 15 0 18 8 18 53 0 28 6 75 14 104 16 61 90 183 154 254 38 42 47
48 58 37 12 -11 10 -25 -12 -83 -78 -208 -93 -306 -54 -345 11 -11 30 -20 43
-20 29 0 83 33 97 59 15 30 37 26 55 -9 18 -35 43 -50 85 -50 44 0 82 23 128
77 36 42 42 45 48 28 4 -11 15 -39 25 -62 16 -39 21 -43 52 -43 58 0 114 66
206 245 33 63 36 75 22 75 -5 0 -34 -47 -66 -104 -60 -110 -87 -146 -110 -146
-12 0 -13 21 -7 123 11 212 10 224 -27 260 -27 27 -38 32 -79 31 -95 -1 -161
-66 -250 -243 -64 -129 -117 -196 -144 -186 -26 10 -23 37 27 195 51 162 57
232 20 256 -16 10 -26 10 -52 -1z m-484 -84 c21 -21 38 -98 25 -111 -5 -4 -18
-10 -29 -12 -13 -2 -35 -32 -65 -86 -25 -46 -58 -99 -73 -118 -25 -30 -34 -35
-65 -32 -30 2 -38 7 -40 27 -7 49 34 163 95 257 55 87 112 115 152 75z m948
-3 c39 -43 35 -118 -5 -118 -14 0 -29 -21 -55 -73 -20 -40 -55 -95 -78 -121
-35 -40 -46 -47 -73 -44 -31 3 -31 3 -30 59 2 110 130 319 196 319 13 0 34
-10 45 -22z"/>
<path d="M7668 3005 c-122 -20 -353 -80 -483 -127 -117 -42 -398 -163 -480
-208 -27 -15 -86 -46 -130 -70 -321 -174 -686 -434 -1069 -760 -277 -236 -563
-468 -594 -483 -30 -14 -65 5 -88 48 -25 47 -15 140 23 203 50 84 52 112 5
112 -32 0 -87 -57 -128 -135 -36 -69 -61 -86 -50 -35 4 23 1 41 -9 57 -40 60
-79 5 -125 -175 -16 -64 -53 -96 -142 -126 -112 -38 -158 -34 -158 13 0 14 21
71 46 126 200 434 286 735 271 943 -7 89 -36 154 -90 196 -35 28 -46 31 -110
31 -62 0 -82 -5 -147 -37 -194 -95 -372 -304 -441 -522 -47 -145 -32 -334 36
-472 19 -40 35 -78 35 -86 0 -8 -17 -50 -39 -94 -47 -97 -102 -150 -216 -206
-64 -32 -88 -38 -119 -34 -67 8 -78 28 -86 158 -4 62 -12 125 -18 139 -26 66
-75 76 -141 29 -39 -29 -126 -136 -153 -190 -7 -14 -30 -51 -52 -82 -43 -64
-70 -74 -86 -33 -15 40 14 203 60 340 43 130 44 158 2 153 -51 -6 -96 -109
-128 -293 -22 -129 -17 -295 10 -324 11 -12 24 -21 29 -21 22 0 104 100 149
181 87 157 170 252 197 223 5 -5 16 -49 24 -99 30 -164 77 -218 191 -219 51 0
73 6 132 36 39 20 85 49 103 63 45 39 57 29 64 -55 7 -87 31 -137 78 -162 75
-42 152 -3 257 128 35 43 72 89 82 102 16 19 28 22 87 22 39 0 96 9 133 20
101 31 104 30 95 -32 -4 -29 -9 -93 -10 -143 l-3 -90 -59 -53 c-77 -70 -304
-227 -477 -331 -159 -95 -471 -251 -501 -251 -11 0 -25 10 -30 23 -9 20 -17
22 -110 25 -79 2 -103 6 -112 19 -9 12 -13 70 -13 205 l0 188 -39 0 c-26 0
-41 -5 -45 -16 -3 -9 -6 -112 -6 -229 0 -181 2 -216 16 -229 12 -13 39 -16
125 -16 121 0 130 -8 50 -42 -173 -74 -421 -141 -606 -162 -529 -63 -1051 10
-1460 205 -108 51 -300 156 -353 191 -23 16 -47 28 -53 26 -12 -4 155 -122
283 -201 271 -167 704 -293 1091 -318 433 -27 823 48 1286 248 387 167 875
494 1377 923 l87 75 141 -3 c77 -2 144 -6 148 -8 4 -3 10 -21 13 -42 17 -103
70 -158 163 -169 43 -5 60 -1 105 21 29 15 79 49 111 77 32 27 61 49 66 49 11
0 20 -26 20 -60 0 -42 9 -59 42 -76 63 -33 120 11 210 163 35 58 69 108 77
111 17 6 34 -14 100 -118 106 -167 293 -299 546 -384 142 -48 372 -86 520 -86
163 0 419 41 570 92 465 155 834 436 1045 793 175 297 194 603 54 879 -118
232 -339 389 -654 462 -94 22 -429 28 -542 9z m407 -89 c326 -35 589 -195 714
-436 54 -103 72 -189 72 -335 -1 -295 -141 -572 -412 -816 -112 -100 -173
-145 -300 -217 -432 -248 -951 -310 -1467 -176 -231 60 -411 168 -502 300 -54
79 -69 127 -80 244 -12 145 -42 188 -124 177 -56 -8 -114 -72 -212 -238 -116
-195 -240 -309 -335 -309 -64 0 -110 61 -112 148 -2 70 10 89 90 134 111 63
176 185 126 240 -22 24 -89 24 -130 -1 -34 -21 -103 -129 -143 -225 -32 -76
-50 -86 -162 -86 -136 0 -138 -4 98 196 232 197 724 585 904 714 109 77 348
232 450 290 99 57 342 180 356 180 2 0 50 20 107 44 119 51 224 85 392 128
220 56 430 69 670 44z m-3635 -386 c121 -86 98 -338 -70 -759 -46 -117 -138
-307 -154 -320 -19 -16 -31 1 -44 58 -29 130 -118 165 -230 91 -25 -17 -53
-29 -62 -28 -8 2 -31 34 -50 73 -35 69 -35 69 -34 205 1 226 54 359 203 509
167 169 346 239 441 171z m1040 -963 c0 -7 -14 -29 -31 -50 -30 -37 -69 -50
-69 -23 0 13 36 65 55 78 16 12 45 9 45 -5z m520 -23 c0 -27 -140 -283 -166
-305 -64 -53 22 189 102 287 41 50 64 57 64 18z m-1930 -23 c21 -40 4 -128
-27 -138 -17 -6 -83 56 -83 79 0 26 53 78 79 78 11 0 25 -9 31 -19z m694 -78
c9 -21 33 -55 51 -77 19 -21 35 -41 35 -45 0 -31 -225 -221 -262 -221 -31 0
44 249 104 348 26 43 51 41 72 -5z m-751 -94 c46 -34 67 -56 67 -71 0 -46
-126 -198 -164 -198 -34 0 -46 30 -46 108 1 117 29 213 63 212 6 -1 42 -23 80
-51z"/>
<path d="M3015 2564 c-49 -25 -116 -66 -248 -151 -85 -55 -346 -245 -456 -332
-218 -173 -312 -249 -376 -308 -38 -35 -75 -63 -81 -63 -7 0 -88 33 -181 74
-343 150 -489 186 -795 193 -228 6 -287 -1 -433 -47 -235 -76 -408 -270 -436
-492 -10 -76 -9 -92 10 -163 34 -124 95 -211 173 -251 49 -25 98 -29 105 -8 2
6 -19 42 -47 80 -28 38 -71 110 -96 159 -101 202 -79 354 72 496 66 61 121 92
232 129 221 74 576 43 927 -80 123 -43 334 -147 342 -167 5 -12 -9 -31 -48
-67 -67 -62 -253 -200 -381 -285 -98 -64 -120 -93 -81 -108 36 -14 152 62 482
317 73 56 112 80 131 80 37 0 214 -117 477 -316 195 -148 266 -193 305 -194 9
0 30 11 46 25 35 30 51 87 77 280 46 340 97 584 167 790 26 77 116 262 168
345 22 35 39 69 37 75 -7 19 -42 15 -92 -11z m-199 -269 c3 -8 -9 -51 -26 -97
-55 -142 -107 -314 -166 -548 -31 -124 -62 -237 -70 -252 -26 -51 -62 -48
-159 12 -33 21 -136 82 -230 135 -93 54 -176 103 -184 110 -7 7 -10 21 -7 32
13 42 624 514 767 593 62 34 68 35 75 15z"/>
<path d="M342 838 c-14 -18 -55 -102 -85 -173 -14 -33 -48 -113 -76 -179 -28
-65 -48 -122 -45 -127 3 -5 18 -9 34 -9 30 0 70 33 70 57 0 7 9 22 20 33 17
17 33 20 103 20 45 0 88 -4 96 -9 8 -5 24 -29 35 -53 18 -37 26 -43 55 -46 50
-5 55 8 27 69 -13 30 -59 133 -101 229 -82 185 -90 200 -110 200 -7 0 -17 -6
-23 -12z m53 -208 c14 -27 25 -58 25 -70 0 -17 -6 -20 -50 -20 -36 0 -52 4
-56 15 -9 22 35 125 52 125 2 0 15 -22 29 -50z"/>
<path d="M1630 815 c-5 -14 -8 -93 -7 -177 2 -125 6 -160 21 -191 72 -148 321
-134 366 20 7 23 10 103 8 203 -3 156 -4 165 -23 168 -43 5 -48 -9 -52 -154
-5 -182 -8 -198 -44 -228 -58 -49 -154 -26 -180 42 -5 14 -10 85 -10 159 0 73
-4 144 -9 158 -13 35 -57 35 -70 0z"/>
<path d="M4877 813 c-57 -112 -197 -438 -193 -450 4 -9 17 -13 38 -11 28 3 37
11 61 56 l28 52 94 0 c89 0 95 -1 114 -26 12 -15 21 -32 21 -39 0 -33 79 -62
95 -34 4 5 -19 67 -51 137 -152 336 -153 337 -173 340 -13 2 -24 -6 -34 -25z
m71 -198 c13 -32 21 -64 18 -71 -3 -9 -21 -14 -45 -14 -51 0 -71 8 -71 29 0
29 49 123 62 119 7 -3 23 -31 36 -63z"/>
<path d="M6239 668 c-2 -95 -2 -204 1 -243 5 -66 6 -70 31 -73 35 -4 47 14 51
73 l3 50 52 3 c51 3 53 2 83 -40 52 -73 69 -88 105 -88 19 0 36 4 39 9 3 5
-13 36 -36 70 l-41 62 21 27 c48 59 54 74 59 135 4 51 0 70 -19 106 -36 69
-68 81 -219 81 l-127 0 -3 -172z m250 66 c26 -21 31 -33 31 -68 0 -75 -46
-109 -141 -104 l-54 3 -3 83 c-2 53 1 89 9 98 7 9 32 14 69 14 48 0 64 -5 89
-26z"/>
</g>
</svg>
